<?xml version="1.0" encoding="UTF-8"?>
<svg id="Layer_1" xmlns="http://www.w3.org/2000/svg" version="1.1" viewBox="0 0 500 500">
  <!-- Generator: Adobe Illustrator 29.5.1, SVG Export Plug-In . SVG Version: 2.1.0 Build 141)  -->
  <defs>
    <style>
      .st0 {
        fill: #5ba6f1;
      }

      .st1 {
        fill: #696a6e;
      }

      .st2 {
        fill: #fff;
      }
    </style>
  </defs>
  <g>
    <path class="st0" d="M344,94.5c-14.3-37.8-50.9-64.7-93.7-64.7s-79.4,26.9-93.7,64.7c-39.2,6-69.4,40-69.4,80.6h0c0,44.9,36.7,81.6,81.6,81.6h162.8c44.9,0,81.6-36.7,81.6-81.6h0c0-40.7-30.2-74.7-69.4-80.6h.2Z"/>
    <path class="st0" d="M337.2,70.9"/>
    <path class="st0" d="M250.2,256.8c74,0,134,43,134,96.2H116.2c0-53.1,60-96.2,134-96.2h0Z"/>
    <path class="st2" d="M394.9,158.6c-.7,0-1.3,0-2,.1-7.1-27.6-32.2-48.2-62.1-48.2s-39.9,10.3-51.5,26c-4.1-3.5-13.6-9.9-28.7-9.9s-24.6,6.3-28.7,9.7c-11.6-15.8-30.4-25.9-51.5-25.9-29.9,0-55,20.4-62.1,48.1h-.7c-8.8,0-16,7.2-16,16s7.2,16,16,16,.4,0,.7,0c7.1,27.6,32.2,48.1,62.1,48.1s64.1-28.7,64.1-64.1-1.7-17.2-5.1-24.8c5.1-3.5,12.2-6.5,21.2-6.5s16,3.1,21.1,6.5c-3.2,7.6-4.9,16-4.9,24.8,0,35.4,28.7,64.1,64.1,64.1s55-20.6,62.1-48.2c.7,0,1.3.1,2,.1,8.8,0,16-7.2,16-16s-7.2-16-16-16h-.1ZM170.3,221.4c-25.8,0-46.7-21-46.7-46.7s21-46.7,46.7-46.7,44.3,18.7,46.5,42.5c-1.9-6.7-8-11.8-15.4-11.8s-16,7.2-16,16,7.2,16,16,16,13.5-4.9,15.4-11.8c-2.1,23.8-22.2,42.5-46.5,42.5h0ZM330.8,221.4c-25,0-45.4-19.6-46.7-44.3,1.2,7.7,7.7,13.6,15.9,13.6s16-7.2,16-16-7.2-16-16-16-14.7,5.9-15.9,13.6c1.2-24.7,21.6-44.3,46.7-44.3s46.7,21,46.7,46.7-21,46.7-46.7,46.7h0Z"/>
  </g>
  <g>
    <path class="st0" d="M130.2,447.3v-51.8h-22.3v-10.6h33.6v64c0,5.9-1.9,10.7-5.6,14.3-2.6,2.4-5.4,4-8.6,4.7-3.2.7-7.1,1.1-11.8,1.1h-7.9v-10.6h9.5c8.8,0,13.2-3.7,13.2-11h0Z"/>
    <path class="st1" d="M192.4,435.1v10.8c-3-2.3-6.8-3.5-11.2-3.5s-6.7.7-8.8,2.2-3.1,3.6-3.1,6.3c0,5.3,3.9,7.9,11.8,7.9h15.8v-22.9c0-9.7-4.7-14.5-14.2-14.5h-19.2v-10.1h19.8c7.8,0,13.7,1.9,17.9,5.8,4.2,3.8,6.2,9.4,6.2,16.6v35.3h-26.8c-6.8,0-12.2-1.5-16.2-4.6-4-3-6-7.5-6-13.3s2.1-10.3,6.4-13.3c4.2-3,9.6-4.6,16-4.6s7.4.6,11.5,1.9h.1Z"/>
    <path class="st1" d="M222.8,468.9v-32.8c0-9.2,1.7-15.6,5.2-19.1,1.7-1.8,3.7-3.1,6.1-4,2.4-.9,4.5-1.4,6.3-1.6s4.3-.2,7.4-.2h10.6v10.1h-12.7c-1.6,0-2.8,0-3.7.1-.9,0-1.9.4-3.1.8-1.2.5-2.2,1.2-3.1,2.3-1.5,1.9-2.3,5.8-2.3,11.5v32.8h-10.7Z"/>
    <path class="st1" d="M290.6,470.3c-6.9-6.5-11.9-13.6-15.2-21.5-3.2-7.8-6.5-20.3-9.7-37.4h11c3.1,19.3,7.7,33.9,13.8,43.8,6.1-9.9,10.7-24.5,13.8-43.8h11c-3.2,17.1-6.4,29.6-9.7,37.4-3.2,7.8-8.3,15-15.2,21.5h.2Z"/>
    <path class="st1" d="M345,468.9h-10.6v-47.5h-9.8l4.8-10.1h15.6v57.6ZM334,399.3c-1-1.4-1.6-2.8-1.6-4.4s.5-3.1,1.6-4.4c1-1.3,2.6-2,4.8-2s3.8.7,4.8,2,1.6,2.8,1.6,4.4-.5,3.1-1.6,4.4c-1,1.3-2.6,2-4.8,2s-3.8-.6-4.8-1.9h0Z"/>
    <path class="st1" d="M404.9,411.3v10.1h-21.2c-2.3,0-4.3.4-6,1.3s-2.5,2.1-2.5,3.7.2,1.8.6,2.6c.4.8.9,1.4,1.4,1.9s1.3,1,2.4,1.5,1.9.9,2.5,1.1,3.1,1,7.6,2.5c4.5,1.4,7.8,2.6,10,3.6s3.8,2.3,5,3.9,1.9,3.2,2.2,4.8c.3,1.6.5,3.1.5,4.6,0,10.7-7.4,16.1-22.1,16.1h-20.8v-10.1h20.8c7.5,0,11.3-2,11.3-6s-1.1-3.5-3.3-4.8c-2.2-1.3-4.9-2.4-8-3.2-3.2-.9-6.3-1.9-9.5-3.1s-5.8-3-8-5.6-3.3-5.8-3.3-9.7,1.9-8.6,5.6-11.2c3.8-2.6,8.3-3.9,13.7-3.9h21.2-.1Z"/>
  </g>
  <path class="st1" d="M344,274.3l25.4-26.7s-41.4,12-60.1,12-40.4,19-47.1,31.5c-7.7,14.2,76-11,76-11"/>
  <g>
    <path class="st2" d="M250.1,30.3h.1-.1Z"/>
    <path class="st2" d="M271.5,32.2l-6.9,34.3h-28l-6.9-34.7c-2.2.4-3.4.7-3.4.7l8.1,36.6h32.3l8.1-36.2s-1.2-.3-3.4-.7h0Z"/>
  </g>
  <path class="st2" d="M229.5,46.1s-16.9,1.1-22.5,1.8c-4.7.6-18.8,3.3-18.8,3.3l-4.3,3.6s17.3-3.1,23.1-3.8,23.1-1.8,23.1-1.8l-.6-3h0Z"/>
  <path class="st2" d="M271.5,46.1s16.9,1.1,22.5,1.8c4.7.6,18.8,3.3,18.8,3.3l4.3,3.6s-17.3-3.1-23.1-3.8-23.1-1.8-23.1-1.8l.6-3h0Z"/>
  <path class="st1" d="M108.2,347.1c-9,3-20-4-20-4v-37s8.5-.2,18-9,12.4-17.7,14-20c13.4-20,37.7-3.7,37.7-3.7l-25.4-26.7s41.5,10.5,60.1,12c18.5,1.5,46.9,26.4,46.1,32-.9,5.9-26.8,9.4-51.6,12.6-19,2.5-23.2-6.1-43,3.8s-17.7,33.8-36,39.9h0Z"/>
  <path class="st2" d="M253.5,288.4c2.3-2.7,4.6-5.5,8.2-6.5,5.2-1.4,10.6,2.1,11.7,7.3,1.3,5.7-2.9,11.4-8.7,12.1-4.4.6-8.2-2.4-11.1-5.3-1.7-1.7-4.3-4.3-6-6-2.5-2.5-5.3-5.9-9.1-5.8-3.1,0-5.9,2.4-6.6,5.5-1.1,4.5,2.4,9,7,9.1,1.6,0,3-.5,4.4-1.2,1.9-1.1,3.6-2.7,5.2-4.1.3-.2.6.1.4.4-1.5,1.7-3,3.5-4.9,4.9-7.1,5.3-16.6-1.1-15-9.7.7-4.2,4.3-7.6,8.5-8.1,2.6-.4,5.1.4,7.2,1.8,1.6,1,2.9,2.2,4.1,3.5.8.8,6.4,6.4,7.2,7.2,1.1,1.1,2.3,2.3,3.6,3.1,1.5,1,3.2,1.7,5,1.4,5.1-.7,7.8-6.5,5.1-10.9-1.5-2.5-4.7-4.1-7.6-3.5-2.6.5-4.9,2.4-6.9,4.1-.4.4-.9.8-1.3,1.1-.3.2-.6-.1-.4-.4h0Z"/>
</svg>
